<svg width="30" height="30" viewBox="0 0 30 30" fill="none" xmlns="http://www.w3.org/2000/svg">
<path d="M15 1.875C18.481 1.875 21.8194 3.25781 24.2808 5.71922C26.7422 8.18064 28.125 11.519 28.125 15C28.125 18.481 26.7422 21.8194 24.2808 24.2808C21.8194 26.7422 18.481 28.125 15 28.125C11.519 28.125 8.18064 26.7422 5.71922 24.2808C3.25781 21.8194 1.875 18.481 1.875 15C1.875 11.519 3.25781 8.18064 5.71922 5.71922C8.18064 3.25781 11.519 1.875 15 1.875ZM15 7.5C14.7619 7.49979 14.5265 7.54923 14.3086 7.64516C14.0907 7.7411 13.8953 7.88142 13.7347 8.05717C13.5741 8.23291 13.452 8.44022 13.3761 8.66584C13.3001 8.89146 13.2721 9.13043 13.2938 9.3675L13.9781 16.8787C14.0047 17.1313 14.1238 17.365 14.3125 17.535C14.5012 17.7049 14.7461 17.7989 15 17.7989C15.2539 17.7989 15.4988 17.7049 15.6875 17.535C15.8762 17.365 15.9953 17.1313 16.0219 16.8787L16.7044 9.3675C16.726 9.13059 16.698 8.89177 16.6222 8.66628C16.5464 8.44079 16.4244 8.23358 16.2641 8.05786C16.1037 7.88215 15.9085 7.74179 15.6908 7.64573C15.4732 7.54968 15.2379 7.50005 15 7.5ZM15 22.5C15.3978 22.5 15.7794 22.342 16.0607 22.0607C16.342 21.7794 16.5 21.3978 16.5 21C16.5 20.6022 16.342 20.2206 16.0607 19.9393C15.7794 19.658 15.3978 19.5 15 19.5C14.6022 19.5 14.2206 19.658 13.9393 19.9393C13.658 20.2206 13.5 20.6022 13.5 21C13.5 21.3978 13.658 21.7794 13.9393 22.0607C14.2206 22.342 14.6022 22.5 15 22.5Z" fill="#007283"/>
</svg>
